<?xml version="1.0" standalone="no"?>
<!DOCTYPE svg PUBLIC "-//W3C//DTD SVG 20010904//EN"
 "http://www.w3.org/TR/2001/REC-SVG-20010904/DTD/svg10.dtd">
<svg version="1.0" xmlns="http://www.w3.org/2000/svg"
 width="1773.000000pt" height="603.000000pt" viewBox="0 0 1773.000000 603.000000"
 preserveAspectRatio="xMidYMid meet">
<g transform="translate(0.000000,603.000000) scale(0.100000,-0.100000)"
fill="#ffffff" stroke="none">
<path d="M15235 5019 c-22 -3 -32 -7 -22 -8 20 -1 23 -31 2 -31 -7 0 -18 8
-24 17 -8 15 -15 16 -52 6 -26 -7 -50 -8 -60 -3 -9 5 -48 6 -87 3 -54 -4 -76
-2 -88 8 -13 11 -18 11 -21 2 -6 -16 -70 -17 -75 -2 -2 6 -15 9 -28 6 l-25 -4
23 -8 c36 -12 25 -25 -21 -25 -31 0 -49 -6 -62 -20 -22 -25 -45 -26 -46 -2 -1
11 -4 8 -8 -8 -5 -18 -15 -26 -35 -28 -16 -2 -39 -9 -50 -17 -12 -7 -54 -22
-93 -34 -40 -12 -73 -25 -73 -29 0 -4 -13 -23 -29 -42 -28 -33 -30 -34 -55
-20 -20 10 -29 11 -38 2 -9 -9 -7 -13 5 -18 25 -9 21 -32 -5 -36 -13 -2 -27
-13 -33 -25 -6 -14 -18 -23 -32 -23 -13 0 -23 -4 -23 -10 0 -5 -16 -24 -35
-41 -19 -18 -35 -40 -35 -51 0 -13 -7 -18 -25 -18 -18 0 -25 -5 -25 -20 0 -10
-6 -23 -13 -27 -19 -12 -73 -85 -81 -110 -4 -12 -20 -38 -36 -58 -17 -21 -30
-43 -30 -49 0 -6 -16 -47 -35 -91 -19 -45 -35 -97 -35 -118 0 -21 -5 -48 -11
-59 -20 -37 -30 -129 -32 -293 -2 -115 1 -168 10 -187 7 -15 13 -41 13 -58 0
-17 7 -44 15 -61 10 -19 13 -35 7 -45 -6 -11 -3 -34 11 -68 33 -84 69 -156 78
-156 5 0 9 -6 9 -14 0 -21 38 -102 55 -116 8 -7 15 -18 15 -26 0 -7 9 -16 21
-19 15 -5 19 -13 16 -27 -3 -11 0 -21 9 -25 16 -6 19 -33 4 -33 -5 0 -10 -7
-10 -15 0 -9 9 -15 25 -15 14 0 25 -4 25 -8 0 -5 -11 -19 -25 -32 -14 -13 -25
-29 -25 -37 0 -7 -6 -13 -14 -13 -8 0 -18 -10 -22 -22 -4 -13 -17 -36 -30 -51
-13 -16 -24 -35 -24 -43 0 -8 -14 -28 -31 -45 -16 -16 -36 -42 -42 -57 -27
-61 -70 -113 -91 -110 -17 2 -21 -2 -21 -26 0 -33 -23 -47 -37 -22 -5 9 -14
14 -19 11 -5 -4 -3 -15 6 -28 8 -12 15 -29 15 -39 0 -19 -25 -25 -35 -8 -13
21 -26 9 -21 -18 5 -23 -5 -40 -60 -107 -35 -44 -73 -96 -84 -116 -11 -20 -26
-39 -35 -42 -8 -4 -15 -14 -15 -23 0 -8 -15 -34 -34 -57 -44 -54 -103 -177
-112 -233 -9 -62 11 -108 72 -170 30 -29 54 -58 54 -63 0 -5 15 -14 33 -21 17
-7 56 -29 86 -49 49 -33 59 -36 125 -36 62 0 76 4 111 28 43 31 167 170 203
229 12 20 29 39 37 42 8 3 15 12 15 20 0 9 8 31 17 51 13 27 21 34 36 29 17
-5 18 -2 12 25 -5 25 -3 32 12 38 27 10 88 84 85 104 -3 20 14 34 43 34 17 0
19 6 17 33 -3 25 0 32 13 32 11 0 15 5 11 15 -3 9 8 29 30 50 19 19 32 39 29
44 -3 6 -1 12 5 16 5 3 10 1 10 -4 0 -6 5 -11 11 -11 7 0 8 11 4 30 -6 27 -4
30 19 30 16 0 26 6 26 14 0 8 10 27 23 43 12 15 31 46 41 68 24 49 55 85 73
85 7 0 15 11 19 24 5 22 8 24 27 13 12 -7 29 -17 37 -24 9 -7 50 -14 92 -16
42 -3 81 -8 87 -12 35 -21 364 -32 428 -14 23 6 67 12 98 13 44 1 55 4 55 18
0 34 79 34 81 0 0 -12 3 -11 9 6 7 17 17 22 44 22 40 0 66 8 66 21 0 5 -6 9
-14 9 -8 0 -18 5 -22 11 -5 8 1 10 18 6 34 -9 94 17 101 43 6 22 28 26 58 10
20 -11 26 -1 9 16 -8 8 -6 15 4 23 10 8 16 9 21 1 9 -15 25 -12 25 5 0 9 12
18 30 21 16 4 37 18 46 32 10 15 32 42 50 60 27 28 36 32 52 23 23 -12 32 -6
32 24 0 13 7 28 15 35 8 7 13 15 11 19 -3 4 15 29 40 55 26 29 44 58 44 72 0
13 4 24 9 24 4 0 22 13 39 30 26 25 31 35 26 60 -7 32 11 41 34 18 18 -18 26
16 13 53 -6 18 -8 35 -5 38 4 3 9 0 11 -6 6 -18 33 -16 33 1 0 8 -5 18 -12 22
-8 5 -7 10 3 18 8 6 19 29 26 51 70 247 75 269 80 390 6 117 -9 237 -48 377
-10 40 -22 85 -25 101 -4 15 -11 30 -15 33 -5 3 -9 19 -9 36 0 22 -6 31 -21
35 -12 4 -22 17 -26 35 -3 15 -10 31 -14 34 -5 3 -9 14 -9 26 0 12 -5 18 -13
15 -9 -3 -12 3 -9 22 2 17 -3 34 -12 44 -9 8 -16 19 -16 23 0 5 -21 27 -46 51
-40 36 -45 45 -34 58 16 19 6 32 -13 16 -18 -14 -50 19 -41 43 4 11 1 16 -11
16 -9 0 -38 23 -65 50 -27 28 -56 50 -65 50 -9 0 -19 9 -22 20 -3 13 -14 20
-29 20 -26 0 -41 16 -22 23 10 4 10 7 0 18 -10 11 -16 11 -33 1 -22 -14 -39
-8 -39 13 0 14 -158 95 -185 95 -7 0 -17 5 -20 10 -3 6 -1 10 4 10 6 0 11 5
11 11 0 8 -13 9 -39 5 -45 -7 -71 0 -71 20 0 8 -11 14 -27 15 -16 0 -46 1 -68
3 -22 1 -48 -2 -57 -6 -14 -7 -18 -4 -18 11 0 24 -15 28 -65 20z m135 -128
c30 -7 60 -16 65 -21 6 -4 26 -11 45 -15 41 -9 218 -91 238 -111 7 -8 18 -14
24 -14 28 0 215 -165 287 -254 80 -100 101 -133 156 -245 37 -75 95 -242 95
-271 0 -9 7 -25 15 -36 20 -27 22 -361 1 -407 -16 -39 -46 -139 -46 -156 0 -7
-13 -42 -30 -78 -16 -35 -30 -70 -30 -77 0 -6 -21 -43 -46 -81 -25 -39 -61
-96 -81 -128 -19 -32 -74 -97 -123 -146 -120 -121 -321 -244 -455 -278 -11 -3
-33 -11 -50 -18 -56 -24 -169 -39 -337 -42 -122 -3 -174 0 -190 9 -13 7 -50
15 -83 19 -62 7 -93 16 -184 57 -65 29 -78 25 -123 -43 -99 -146 -132 -191
-144 -198 -8 -4 -14 -17 -14 -27 0 -10 -6 -23 -13 -27 -7 -4 -24 -26 -39 -48
-15 -22 -45 -65 -67 -95 -22 -30 -55 -77 -75 -105 -33 -48 -78 -111 -216 -306
-36 -50 -92 -128 -126 -173 -59 -80 -61 -81 -108 -84 -44 -3 -53 1 -106 42
-32 25 -61 46 -65 46 -3 0 -30 18 -60 40 l-55 41 0 63 c0 54 4 69 28 99 15 20
47 65 71 99 42 59 157 215 209 283 12 17 33 46 46 66 13 20 31 42 38 50 8 8
32 38 53 68 80 115 300 407 327 435 15 17 28 36 28 44 0 7 -26 42 -57 77 -32
35 -72 88 -90 117 -37 60 -123 228 -123 241 0 5 -6 23 -13 40 -36 83 -67 269
-67 397 0 196 67 440 163 594 107 173 274 340 413 416 22 12 46 25 54 30 29
17 171 73 225 88 138 38 160 41 370 38 120 -2 234 -8 265 -15z"/>
<path d="M14950 4790 c-41 -4 -102 -15 -135 -24 -33 -10 -76 -21 -95 -26 -46
-12 -189 -85 -264 -135 -80 -53 -206 -182 -268 -273 -67 -99 -121 -217 -147
-322 -27 -111 -45 -307 -32 -357 5 -21 12 -63 16 -93 6 -56 29 -141 46 -172 5
-10 9 -27 9 -39 0 -12 16 -47 35 -79 19 -32 35 -62 35 -68 0 -5 33 -54 74
-108 101 -136 213 -239 330 -302 33 -18 76 -42 94 -53 18 -10 42 -19 52 -19
11 0 34 -6 52 -14 118 -51 306 -72 469 -51 122 15 227 39 243 55 5 5 17 10 25
10 9 0 53 19 98 42 397 201 635 638 584 1073 -29 252 -152 502 -327 665 -148
139 -284 212 -504 273 -67 18 -287 28 -390 17z m318 -76 c101 -23 175 -47 193
-61 8 -7 21 -13 28 -13 24 0 153 -77 210 -125 102 -86 178 -179 236 -290 26
-49 51 -95 56 -100 9 -12 21 -58 50 -185 21 -95 27 -308 9 -354 -5 -15 -10
-39 -10 -54 0 -15 -6 -38 -13 -52 -8 -14 -17 -40 -20 -57 -8 -42 -77 -179
-119 -239 -56 -79 -189 -213 -258 -259 -109 -72 -227 -127 -315 -145 -22 -5
-58 -13 -80 -19 -130 -34 -421 7 -555 79 -19 10 -44 23 -56 29 -149 69 -325
250 -413 427 -93 185 -122 343 -103 557 17 188 60 305 173 472 74 109 225 244
321 285 13 6 30 14 38 18 50 28 84 42 103 42 12 0 31 7 41 15 11 8 34 15 50
16 17 0 49 6 71 14 58 19 280 19 363 -1z"/>
<path d="M14935 4610 c-63 -7 -118 -22 -172 -46 -17 -8 -35 -14 -40 -14 -19 0
-171 -96 -212 -134 -85 -80 -102 -99 -140 -155 -100 -147 -150 -315 -151 -496
0 -139 23 -256 71 -362 10 -24 19 -46 19 -50 0 -3 20 -36 43 -72 24 -36 52
-80 63 -97 10 -17 42 -51 70 -75 89 -76 78 -69 222 -156 21 -12 46 -22 57 -23
12 0 25 -4 30 -9 6 -6 28 -14 50 -20 22 -5 58 -15 80 -20 60 -16 294 -14 326
2 14 8 44 17 68 21 23 3 50 10 59 15 9 5 46 24 82 42 190 94 342 265 425 478
43 111 47 132 52 276 5 141 -15 252 -70 382 -113 268 -371 472 -647 513 -66
10 -202 10 -285 0z m270 -76 c50 -8 99 -19 110 -24 11 -5 34 -13 50 -18 34
-10 62 -50 52 -76 -4 -9 -23 -24 -42 -32 -32 -13 -38 -13 -58 1 -12 8 -31 15
-43 15 -12 0 -38 7 -57 15 -42 17 -210 20 -269 5 -116 -30 -157 -46 -229 -87
-56 -33 -179 -146 -179 -166 0 -23 -34 -47 -66 -47 -38 0 -64 22 -64 55 0 29
96 143 168 199 80 63 221 129 312 148 25 5 63 13 85 17 65 14 134 12 230 -5z
m334 -199 c17 -5 20 -10 12 -18 -6 -6 -11 -19 -11 -28 0 -10 -11 -26 -24 -37
-14 -10 -33 -35 -42 -55 -15 -32 -16 -40 -4 -64 18 -37 60 -83 85 -94 11 -5
28 -15 38 -21 15 -11 20 -10 31 5 12 15 14 16 20 2 9 -25 36 -18 36 9 0 29 18
44 26 22 4 -10 19 -16 40 -16 19 0 34 -4 34 -9 0 -11 -25 -21 -50 -21 -11 0
-28 -9 -39 -21 -14 -16 -24 -18 -38 -11 -10 5 -24 7 -30 5 -20 -7 -15 -30 8
-36 13 -3 18 -10 14 -17 -4 -7 -16 -9 -27 -7 -24 7 -35 -17 -18 -38 7 -9 9
-22 4 -32 -4 -10 -9 -43 -9 -73 -2 -66 -12 -125 -24 -148 -5 -9 -12 -37 -16
-62 -4 -24 -16 -61 -27 -82 -11 -21 -22 -57 -25 -80 -7 -47 -38 -85 -67 -80
-9 2 -23 -4 -30 -14 -15 -19 -36 -11 -36 14 -1 11 -7 6 -18 -14 -9 -17 -27
-46 -39 -65 -32 -48 -29 -81 12 -135 19 -25 35 -49 35 -54 0 -4 10 -11 23 -15
19 -6 20 -8 4 -12 -10 -3 -24 1 -32 7 -15 13 -55 5 -55 -11 0 -5 7 -9 15 -9 8
0 15 -4 15 -10 0 -5 -12 -10 -26 -10 -14 0 -35 -5 -47 -11 -35 -19 -232 -19
-309 1 -37 9 -71 19 -75 23 -3 4 -18 7 -32 7 -14 0 -36 3 -48 6 l-22 6 22 19
22 18 -32 1 c-17 0 -33 -6 -35 -12 -4 -10 -11 -10 -34 1 l-29 13 25 10 c20 7
22 11 10 18 -9 6 -19 5 -24 0 -16 -16 -29 -11 -23 9 3 14 0 17 -13 14 -10 -3
-30 8 -49 27 -24 24 -35 29 -45 21 -17 -14 -26 -4 -26 31 0 28 -11 44 -81 116
-33 35 -59 77 -59 97 0 21 -37 102 -51 110 -7 5 -8 25 -4 56 5 35 3 54 -7 66
-15 18 -13 175 3 204 5 11 3 28 -8 50 -16 32 -16 33 5 47 15 10 22 25 22 46 0
40 30 55 97 49 41 -4 54 0 96 27 26 18 52 41 58 51 5 10 15 19 22 19 7 0 23
13 35 29 18 24 31 31 69 34 39 3 44 5 25 12 -13 4 -21 13 -19 19 5 14 47 21
47 7 0 -6 9 -11 20 -11 24 0 26 9 5 24 -14 10 -14 14 -1 31 11 16 17 17 29 7
12 -10 24 -8 63 9 45 19 62 20 194 15 80 -2 172 -9 205 -15 56 -10 61 -9 77
11 14 19 20 21 42 10 27 -12 40 -3 30 21 -7 20 26 28 46 11 8 -6 26 -15 39
-19z m118 -127 c46 -43 14 -108 -53 -108 -68 0 -95 51 -53 104 26 33 73 35
106 4z m103 -124 c0 -14 -21 -19 -33 -7 -9 9 13 34 24 27 5 -3 9 -12 9 -20z
m36 -179 c20 -31 24 -206 7 -295 -30 -155 -101 -291 -152 -290 -24 1 -61 35
-61 57 0 10 16 49 35 85 62 116 83 256 60 389 -10 55 7 79 55 79 31 0 43 -5
56 -25z m-238 -606 c2 -13 8 -28 13 -33 15 -17 10 -26 -14 -26 -30 0 -40 10
-26 27 9 10 7 19 -5 38 -24 36 -21 51 7 33 12 -9 24 -26 25 -39z m-90 -56 c82
-47 13 -151 -73 -110 -28 13 -35 22 -35 44 0 34 10 51 41 68 32 18 33 18 67
-2z"/>
<path d="M15415 3369 c-10 -15 3 -25 16 -12 7 7 7 13 1 17 -6 3 -14 1 -17 -5z"/>
<path d="M14334 2782 c-6 -4 -28 -33 -48 -64 -20 -32 -56 -82 -79 -110 -23
-29 -55 -73 -72 -98 -16 -25 -57 -79 -89 -120 -32 -41 -70 -92 -83 -114 -21
-32 -158 -222 -217 -301 -113 -150 -158 -205 -166 -205 -14 0 -12 -37 3 -50
44 -37 108 -80 119 -80 7 1 22 20 34 43 11 23 99 152 196 287 96 135 195 274
220 310 171 246 222 315 270 372 l48 56 -29 31 c-16 17 -41 35 -55 41 -32 12
-37 12 -52 2z"/>
<path d="M2631 4331 c-7 -4 -69 -6 -139 -3 -114 4 -126 3 -114 -11 8 -9 9 -18
4 -21 -6 -3 -13 1 -16 10 -4 10 -13 13 -26 9 -10 -3 -27 -2 -37 4 -14 7 -25 4
-43 -10 -14 -10 -30 -19 -35 -19 -6 0 -16 -9 -23 -21 -13 -20 -14 -20 -26 -3
-10 14 -15 14 -21 4 -5 -9 -4 -15 3 -18 18 -6 14 -20 -6 -26 -11 -4 -25 -27
-35 -59 -15 -47 -17 -161 -17 -1204 -1 -803 2 -1165 10 -1193 6 -22 20 -46 30
-53 11 -6 20 -17 20 -23 0 -6 16 -24 36 -39 45 -35 150 -49 288 -40 109 7 135
17 182 67 62 65 59 25 64 748 3 366 9 670 13 677 4 7 2 21 -5 32 -7 11 -9 23
-5 27 7 8 37 -14 37 -27 0 -17 92 -165 113 -181 18 -14 20 -19 10 -29 -20 -20
-16 -51 5 -45 11 4 23 -4 37 -24 11 -17 23 -30 28 -30 4 0 5 -11 1 -24 -6 -24
25 -80 66 -121 11 -12 20 -27 20 -35 0 -7 14 -37 30 -67 17 -29 30 -61 30 -71
0 -10 14 -33 31 -50 27 -28 30 -34 18 -48 -12 -15 -11 -16 9 -10 17 6 24 3 31
-16 5 -13 21 -36 37 -51 24 -24 26 -31 16 -48 -15 -23 -16 -49 -2 -49 6 0 10
-7 10 -16 0 -9 8 -18 18 -20 9 -3 25 -23 34 -46 13 -29 22 -39 33 -34 13 5 15
-2 9 -44 -6 -42 -4 -50 10 -50 9 0 16 5 16 10 0 6 5 10 11 10 6 0 8 -8 4 -20
-4 -13 7 -39 34 -80 23 -34 41 -71 41 -83 0 -12 9 -28 20 -35 20 -12 60 -85
60 -109 0 -7 6 -13 13 -13 8 0 23 -10 35 -23 12 -13 44 -34 70 -48 45 -23 54
-24 247 -23 212 0 256 7 293 47 11 12 28 28 36 35 9 7 16 24 16 37 0 18 5 25
19 25 27 0 34 15 16 30 -20 16 -19 40 2 55 18 13 10 35 -14 35 -12 0 -14 6 -8
28 4 15 8 134 10 264 2 130 6 242 9 247 4 6 13 8 21 5 16 -6 31 52 22 87 -3
12 -1 19 6 16 16 -5 29 -57 22 -90 -3 -17 2 -38 12 -54 13 -20 14 -29 5 -44
-7 -10 -12 -28 -12 -40 0 -16 5 -20 20 -16 11 3 20 4 20 3 0 0 -4 -16 -9 -34
-8 -27 -6 -35 10 -51 11 -10 35 -47 53 -82 79 -155 128 -219 166 -219 25 0 46
-36 25 -44 -8 -3 -15 -12 -15 -21 0 -17 25 -20 35 -4 12 18 44 -19 37 -43 -5
-19 -2 -21 31 -15 35 5 61 -6 35 -16 -10 -3 -8 -10 6 -25 14 -16 23 -19 37
-12 19 11 49 4 49 -11 0 -14 140 -79 170 -79 14 0 39 -9 55 -20 25 -17 40 -19
92 -14 43 5 67 3 78 -6 10 -9 35 -10 85 -5 60 6 70 5 70 -9 0 -20 4 -20 33 -2
12 7 51 19 85 25 111 21 282 78 308 103 59 57 84 72 84 48 0 -5 7 -10 15 -10
8 0 15 8 15 18 0 9 24 36 53 59 29 23 69 64 88 92 22 33 43 52 61 56 35 8 46
25 25 37 -20 11 -11 38 13 38 14 0 17 5 13 21 -4 14 0 25 11 31 9 5 16 15 16
21 0 7 9 31 20 52 12 22 26 62 31 88 10 46 9 51 -19 90 -16 23 -37 57 -46 75
l-17 34 38 34 c21 19 50 37 65 40 31 7 45 38 27 60 -9 11 -9 20 0 37 14 26 8
231 -7 250 -5 7 -12 35 -16 62 -9 67 -49 179 -80 224 -28 40 -47 131 -27 131
6 0 11 4 11 10 0 5 -13 1 -30 -8 -23 -14 -32 -14 -42 -4 -10 10 -10 16 0 33 8
12 10 24 6 27 -4 4 -9 1 -11 -5 -7 -21 -25 -15 -18 6 4 15 1 18 -17 14 -18 -3
-26 3 -36 24 -7 15 -35 46 -62 68 -27 22 -49 48 -49 58 -1 22 -20 22 -36 0
-15 -20 -38 -8 -30 17 3 10 0 22 -7 26 -6 4 -14 2 -16 -4 -4 -14 -42 -16 -42
-2 0 5 8 13 18 19 16 9 16 10 -1 17 -10 3 -30 1 -44 -5 -22 -10 -29 -9 -47 7
-51 44 -168 79 -310 92 -128 12 -268 -2 -403 -40 -37 -11 -69 -20 -71 -20 -2
0 -15 -12 -29 -27 -17 -19 -27 -24 -30 -15 -7 18 -22 15 -53 -10 -15 -13 -37
-30 -49 -38 -21 -14 -53 -41 -111 -95 -14 -12 -34 -25 -45 -27 -11 -2 -20 -10
-20 -18 0 -8 -4 -21 -9 -28 -6 -10 -11 -9 -22 5 -13 16 -14 14 -8 -19 4 -25 2
-38 -5 -38 -6 0 -11 7 -11 15 0 8 -7 15 -15 15 -8 0 -15 -9 -15 -19 0 -11 -16
-47 -36 -80 -20 -34 -42 -78 -49 -99 -8 -23 -20 -38 -33 -40 -13 -2 -19 -11
-19 -30 0 -31 -22 -92 -42 -116 -11 -13 -11 -19 -1 -31 9 -11 9 -15 1 -15 -9
0 -10 -13 -6 -44 6 -34 4 -44 -9 -49 -10 -4 -16 -18 -16 -36 0 -20 -7 -34 -20
-41 -19 -10 -20 -8 -20 35 0 33 4 45 15 45 8 0 15 7 15 15 0 8 -6 15 -14 15
-8 0 -17 8 -20 18 -3 9 -8 302 -10 649 -6 676 -4 656 -56 711 -11 12 -26 22
-32 22 -6 0 -8 11 -5 26 5 26 4 26 -43 20 -39 -5 -49 -3 -54 10 -5 14 -21 15
-124 9 -102 -6 -119 -5 -131 9 -18 21 -28 20 -34 -4 -3 -13 -14 -20 -29 -20
-16 0 -27 -9 -37 -31 -7 -17 -24 -35 -37 -41 -17 -8 -24 -20 -24 -38 0 -14 -5
-31 -11 -37 -7 -7 -10 -208 -9 -636 0 -558 -1 -626 -15 -621 -10 4 -15 0 -15
-13 0 -28 -8 -33 -34 -20 -39 21 -63 51 -70 89 -4 24 -13 39 -26 43 -14 4 -20
15 -20 36 0 18 -6 32 -16 36 -12 4 -14 14 -9 42 5 29 4 34 -6 24 -20 -20 -39
-15 -39 10 0 13 -18 47 -40 77 -28 37 -37 57 -31 69 11 21 3 41 -16 41 -10 0
-12 6 -8 19 4 14 0 23 -15 31 -20 11 -20 13 -6 29 22 25 20 30 -11 28 -25 -2
-28 2 -31 31 -3 27 -6 31 -17 22 -28 -23 -50 21 -24 47 9 9 5 14 -15 19 -23 5
-26 11 -22 30 4 16 1 26 -12 33 -10 5 -25 29 -32 52 -8 23 -22 44 -31 46 -12
4 -17 15 -17 41 0 34 -9 47 -52 72 -13 7 -13 12 -2 30 15 25 8 40 -19 40 -10
0 -19 7 -19 15 0 8 -12 29 -27 47 -57 67 -68 105 -26 83 16 -9 31 -11 36 -6
14 14 -2 31 -29 31 -15 0 -24 6 -24 15 0 8 -4 15 -10 15 -16 0 -60 50 -60 68
0 9 -14 26 -30 37 -17 11 -32 27 -35 35 -3 9 -25 24 -50 34 -25 11 -45 22 -45
25 -1 14 -47 39 -59 32z m125 -196 c24 -44 49 -92 55 -107 6 -16 15 -28 20
-28 5 0 9 -9 9 -19 0 -11 4 -22 9 -26 6 -3 21 -29 36 -58 14 -28 41 -79 60
-112 18 -33 46 -82 60 -110 14 -27 35 -63 45 -80 11 -16 22 -37 26 -45 3 -8 9
-22 14 -30 5 -8 21 -37 35 -65 14 -27 35 -63 45 -80 11 -16 22 -36 25 -42 3
-7 7 -19 10 -25 3 -7 14 -26 25 -43 11 -16 23 -37 26 -45 3 -8 8 -19 10 -25 2
-5 13 -23 24 -40 11 -16 25 -42 31 -57 6 -16 15 -28 20 -28 5 0 9 -8 9 -19 0
-10 7 -24 15 -31 8 -7 15 -21 15 -31 0 -10 6 -22 13 -26 6 -4 22 -28 35 -53
12 -25 27 -52 32 -60 5 -8 11 -22 14 -30 4 -8 15 -28 26 -45 10 -16 31 -52 45
-80 14 -27 48 -90 75 -140 27 -49 52 -97 56 -105 57 -133 84 -171 96 -137 3 6
1 104 -3 217 -4 113 -8 539 -8 948 l-1 742 205 0 c243 0 225 12 212 -143 -7
-93 -3 -2269 5 -2327 l3 -25 -250 -2 c-143 -1 -257 3 -267 8 -10 5 -18 18 -18
29 0 10 -4 21 -9 25 -6 3 -21 29 -36 58 -14 28 -41 79 -60 112 -18 33 -45 83
-60 110 -14 28 -41 77 -60 110 -19 33 -39 71 -45 85 -6 13 -14 27 -18 30 -4 3
-17 26 -30 52 -13 26 -27 50 -33 53 -5 4 -9 15 -9 26 0 11 -7 22 -15 25 -8 4
-15 14 -15 24 0 11 -4 21 -9 25 -6 3 -21 29 -36 58 -14 28 -41 79 -60 112 -19
33 -39 69 -45 80 -5 11 -14 27 -19 35 -5 8 -12 22 -15 30 -4 8 -22 42 -41 75
-19 33 -39 70 -44 82 -5 11 -15 24 -20 28 -6 3 -11 14 -11 24 0 10 -7 24 -15
31 -8 7 -15 21 -15 32 0 10 -7 21 -15 24 -8 4 -15 14 -15 24 0 11 -5 22 -11
25 -5 4 -14 17 -20 28 -5 12 -13 29 -18 37 -5 8 -12 22 -15 30 -4 8 -15 29
-26 45 -11 17 -22 37 -26 45 -3 8 -9 22 -14 30 -5 8 -21 38 -35 65 -14 28 -29
57 -34 65 -15 24 -41 87 -41 97 0 13 -48 34 -54 24 -3 -4 0 -23 6 -42 9 -25
13 -287 16 -946 l3 -912 -206 -3 c-114 -2 -209 0 -211 4 -3 4 -7 2375 -4 2491
0 4 113 6 251 5 l251 -3 44 -80z m2714 -567 c52 -6 107 -16 122 -24 15 -8 40
-14 55 -14 15 0 57 -14 93 -32 36 -17 80 -38 98 -47 17 -8 32 -18 32 -22 0 -4
27 -24 60 -45 33 -21 60 -41 60 -44 0 -3 13 -19 28 -36 45 -47 87 -106 111
-154 12 -25 26 -52 30 -60 22 -41 40 -88 44 -115 3 -16 9 -43 15 -60 15 -41
36 -215 36 -298 l1 -69 -650 1 c-357 1 -677 4 -709 8 l-59 6 7 -54 c4 -29 13
-64 20 -78 8 -15 23 -46 35 -71 53 -109 78 -144 143 -205 37 -36 77 -65 87
-65 10 0 24 -7 31 -15 7 -8 20 -15 29 -15 9 0 23 -6 29 -12 9 -9 53 -13 145
-13 124 0 135 2 188 28 31 15 61 27 67 27 20 0 162 148 162 168 0 11 7 25 15
32 8 7 15 18 15 25 0 11 45 14 203 17 111 2 206 1 210 -3 4 -3 1 -19 -7 -35
-8 -16 -31 -63 -51 -104 -72 -150 -140 -235 -259 -328 -59 -45 -159 -102 -182
-102 -6 0 -17 -7 -24 -15 -7 -8 -28 -15 -47 -15 -19 0 -46 -6 -61 -14 -24 -12
-163 -29 -232 -28 -86 0 -228 17 -245 28 -11 8 -32 14 -46 14 -24 0 -57 13
-109 42 -8 4 -22 11 -30 14 -31 12 -36 15 -69 35 -113 68 -246 210 -295 314
-10 22 -22 47 -27 55 -26 45 -49 106 -49 129 -1 14 -7 37 -15 51 -8 14 -15 52
-15 85 -1 33 -5 80 -10 105 -11 53 5 252 26 319 8 25 14 55 14 67 0 12 6 35
14 51 8 15 22 46 32 68 9 22 21 47 26 55 5 8 11 23 14 33 4 9 10 17 15 17 5 0
14 10 19 23 6 12 16 31 22 42 16 24 162 170 180 179 7 3 27 15 43 26 17 11 39
24 50 30 11 5 27 14 35 18 49 28 84 42 101 42 11 0 32 6 47 14 15 7 65 16 112
20 47 3 99 10 115 15 17 5 37 7 45 4 8 -2 58 -9 110 -15z m-1878 -743 c0 -5
-5 -11 -11 -13 -6 -2 -11 4 -11 13 0 9 5 15 11 13 6 -2 11 -8 11 -13z m732
-131 c21 -8 20 -27 -4 -55 l-19 -24 -1 43 c0 45 0 45 24 36z m812 -249 c20
-15 93 -20 110 -7 5 4 123 5 262 2 210 -4 254 -8 262 -20 15 -23 12 -50 -5
-50 -8 0 -15 5 -15 10 0 6 -9 10 -20 10 -23 0 -27 -18 -5 -26 22 -9 18 -34 -4
-34 -19 0 -57 -36 -114 -105 -20 -24 -27 -27 -39 -17 -18 15 -28 6 -28 -25 0
-20 -5 -23 -40 -23 -21 0 -54 -7 -73 -16 -30 -14 -40 -14 -106 0 -41 8 -77 20
-81 26 -4 7 -16 10 -26 8 -9 -1 -29 7 -43 19 -34 30 -125 120 -145 144 -18 21
-21 49 -6 49 6 0 10 7 10 15 0 8 -4 15 -10 15 -5 0 -10 5 -10 10 0 6 15 8 40
4 33 -5 40 -4 40 10 0 20 20 21 46 1z"/>
<path d="M5235 3253 c-11 -3 -24 -9 -29 -14 -6 -5 -19 -9 -29 -9 -31 0 -130
-62 -182 -115 -38 -37 -85 -103 -85 -118 0 -8 -7 -20 -15 -27 -8 -7 -15 -20
-15 -29 0 -9 -7 -26 -15 -38 -34 -48 -38 -48 483 -48 310 0 490 4 494 10 17
23 -29 132 -90 213 -92 122 -225 183 -397 181 -55 -1 -109 -3 -120 -6z m213
-106 c34 0 52 -5 52 -13 0 -6 11 -15 25 -18 14 -4 25 -10 25 -14 0 -4 4 -13 9
-21 8 -12 12 -12 25 -2 22 19 46 6 46 -25 0 -17 6 -28 20 -31 10 -3 22 -14 26
-25 7 -22 -3 -38 -14 -23 -4 6 -19 16 -33 24 -15 7 -32 23 -37 35 -8 16 -11
17 -11 4 -1 -9 6 -24 15 -32 17 -18 16 -47 -3 -53 -6 -2 -14 5 -18 16 -7 24
-22 27 -44 8 -13 -11 -47 -12 -170 -6 -84 4 -179 6 -210 4 -57 -3 -91 7 -91
26 0 40 93 110 163 123 19 4 40 13 47 21 9 10 26 13 68 8 31 -3 81 -6 110 -6z"/>
<path d="M2990 3990 c0 -11 5 -20 10 -20 6 0 10 9 10 20 0 11 -4 20 -10 20 -5
0 -10 -9 -10 -20z"/>
<path d="M10605 3674 c-49 -8 -110 -21 -134 -29 -25 -8 -52 -15 -60 -15 -9 0
-22 -9 -29 -20 -10 -17 -80 -60 -97 -60 -3 0 -5 7 -5 15 0 20 -13 19 -34 -4
-11 -12 -14 -21 -7 -26 20 -11 12 -23 -23 -35 -24 -7 -36 -18 -38 -33 -2 -14
-9 -21 -20 -19 -9 1 -19 -6 -23 -18 -3 -11 -13 -20 -21 -20 -8 0 -14 -10 -14
-24 0 -16 -7 -27 -20 -31 -27 -8 -52 -61 -78 -163 -30 -114 -25 -235 16 -350
28 -80 42 -108 42 -84 0 7 7 12 15 12 19 0 19 -16 0 -24 -22 -8 -6 -36 21 -36
25 0 33 -15 12 -22 -6 -2 -8 -10 -4 -17 6 -9 11 -9 21 -1 19 16 40 3 25 -15
-9 -11 -4 -18 22 -32 58 -32 117 -77 124 -96 4 -13 14 -17 34 -15 31 3 80 -36
80 -64 0 -16 3 -16 36 -2 30 13 42 13 67 3 24 -10 32 -10 35 -1 6 18 52 15 59
-4 5 -12 14 -15 44 -10 28 4 40 2 46 -9 5 -8 40 -21 78 -29 119 -24 256 -78
292 -114 30 -31 31 -32 11 -43 -12 -6 -17 -16 -14 -26 7 -16 -14 -73 -25 -73
-4 0 -10 8 -14 17 -6 16 -8 16 -23 -3 -30 -36 -190 -63 -236 -39 -15 8 -32 12
-37 9 -25 -15 -182 115 -202 169 -3 9 -13 17 -21 17 -9 0 -16 11 -18 27 -2 18
-10 29 -23 32 -11 2 -31 14 -44 27 -13 13 -34 24 -47 24 -27 0 -28 3 -14 31
12 21 -4 27 -17 7 -4 -7 -23 -18 -42 -25 -28 -10 -37 -9 -57 4 -22 14 -26 14
-51 -2 -26 -18 -27 -17 -49 9 -28 32 -34 33 -34 2 0 -25 -25 -43 -35 -26 -11
17 -33 11 -40 -11 -5 -15 -13 -19 -27 -16 -12 4 -26 -2 -36 -14 -9 -10 -24
-19 -33 -19 -9 0 -20 -8 -24 -17 -6 -16 -8 -16 -25 5 -17 20 -17 25 -5 49 12
23 14 115 10 553 -3 289 -9 537 -13 552 -4 16 -31 52 -61 82 -66 68 -115 81
-271 73 -126 -7 -150 -13 -150 -38 0 -12 -7 -19 -18 -19 -20 0 -62 -40 -83
-80 -12 -23 -18 -325 -19 -1037 0 -55 -4 -76 -17 -89 -18 -18 -21 -29 -27 -98
-2 -29 -9 -42 -25 -49 -11 -6 -21 -14 -21 -19 0 -14 -82 -88 -97 -88 -7 0 -13
7 -13 15 0 21 -9 19 -29 -7 -17 -20 -19 -20 -41 -5 -20 14 -26 15 -39 3 -24
-20 -58 -28 -66 -15 -4 6 -2 15 5 19 7 4 9 13 6 19 -11 18 -34 13 -41 -9 -8
-26 -22 -26 -30 0 -4 13 -15 20 -31 20 -20 0 -24 5 -24 31 0 20 -8 37 -22 49
-20 17 -21 21 -10 40 11 18 11 28 1 52 -9 21 -9 32 -1 40 9 9 8 15 -1 26 -9
12 -12 128 -12 481 0 258 -4 472 -9 480 -5 8 -8 45 -7 82 2 66 1 70 -33 104
-20 20 -36 40 -36 45 0 25 -68 43 -180 48 -135 5 -225 -9 -241 -39 -7 -14 -16
-18 -31 -13 -16 5 -20 3 -15 -9 4 -11 0 -13 -15 -9 -11 2 -23 0 -27 -7 -10
-15 -68 16 -74 40 -7 26 -128 42 -281 37 -142 -4 -165 -11 -207 -61 -26 -30
-26 -31 -38 -9 -6 12 -16 22 -21 22 -13 0 -13 -57 0 -65 19 -12 11 -38 -9 -32
-15 3 -27 -6 -47 -34 -15 -21 -30 -39 -35 -39 -9 0 -39 -58 -39 -75 0 -7 -8
-16 -17 -19 -12 -5 -14 -9 -5 -18 16 -16 15 -28 -3 -28 -8 0 -15 6 -15 13 0 6
-9 -3 -20 -20 -11 -18 -27 -33 -36 -33 -14 0 -15 -7 -10 -40 6 -37 5 -40 -17
-40 -13 0 -36 -14 -52 -30 -33 -35 -49 -34 -50 1 0 17 -6 24 -20 24 -15 0 -21
8 -23 33 -3 31 -6 33 -29 27 -24 -6 -25 -5 -19 30 5 25 3 35 -6 35 -7 1 -24
10 -37 20 -19 17 -21 23 -11 35 10 13 8 19 -13 35 -14 11 -32 36 -38 55 -9 23
-19 35 -32 35 -14 0 -17 5 -12 20 4 14 2 20 -9 20 -8 0 -41 26 -73 58 -51 52
-65 60 -121 72 -91 19 -329 9 -371 -16 -17 -10 -31 -22 -31 -25 0 -4 -9 -11
-20 -14 -11 -3 -20 -13 -20 -21 0 -8 -6 -14 -14 -14 -8 0 -17 -4 -20 -9 -7
-11 19 -65 39 -81 22 -18 19 -43 -4 -35 -11 3 -22 1 -26 -5 -3 -5 2 -10 12
-10 25 0 43 -19 43 -46 0 -31 29 -79 54 -90 11 -5 26 -20 33 -34 7 -14 20 -25
29 -25 27 0 28 -22 2 -29 l-23 -7 28 -15 c15 -8 27 -23 27 -33 0 -10 7 -21 15
-25 8 -3 15 -12 15 -21 0 -9 9 -15 21 -15 18 0 20 -4 14 -30 -5 -23 -3 -30 9
-30 9 0 16 7 16 15 0 16 12 20 23 8 4 -3 0 -14 -8 -23 -13 -14 -13 -19 1 -38
8 -12 22 -22 30 -22 8 0 17 -13 20 -29 4 -17 12 -32 20 -35 7 -3 25 -28 39
-56 25 -49 55 -67 55 -33 0 12 3 14 11 6 7 -7 4 -21 -11 -48 -19 -34 -19 -37
-3 -30 27 11 47 11 53 0 3 -5 -5 -11 -17 -13 -28 -4 -31 -32 -4 -32 10 0 29
-9 42 -20 23 -19 23 -21 7 -34 -10 -7 -18 -17 -18 -22 0 -5 -12 -22 -27 -39
-18 -18 -21 -26 -10 -22 24 9 32 -11 12 -33 -12 -14 -25 -18 -41 -14 -18 5
-24 2 -24 -9 0 -9 5 -19 12 -23 8 -5 7 -10 -4 -18 -9 -6 -17 -20 -19 -31 -3
-12 -12 -20 -24 -20 -21 0 -33 -29 -16 -40 21 -12 11 -26 -16 -23 -22 2 -28
-1 -29 -17 -2 -44 -4 -46 -24 -40 -15 5 -20 2 -18 -12 3 -37 -2 -53 -17 -53
-9 0 -20 -12 -26 -27 -5 -15 -19 -33 -29 -40 -11 -8 -17 -19 -14 -27 3 -7 -9
-28 -27 -47 -18 -19 -43 -52 -57 -74 -14 -22 -37 -50 -51 -63 -22 -18 -24 -24
-11 -32 8 -5 11 -12 7 -16 -4 -4 -13 -2 -19 4 -16 16 -28 15 -28 -3 0 -8 5
-15 10 -15 6 0 10 -7 10 -15 0 -18 -21 -20 -38 -3 -21 21 -26 -2 -5 -30 17
-23 18 -31 7 -57 -10 -26 -9 -35 10 -69 12 -22 33 -48 47 -58 38 -28 155 -41
303 -34 140 7 149 11 226 83 19 18 38 33 43 33 4 0 12 10 17 23 6 12 18 34 28
48 63 94 82 126 82 141 0 9 9 20 20 23 11 3 20 11 20 16 0 5 11 14 25 19 17 7
25 17 25 34 0 13 13 37 28 53 16 15 31 36 35 46 12 32 26 19 57 -55 14 -33 30
-37 30 -8 0 11 5 20 10 20 6 0 10 -7 10 -15 0 -9 7 -18 16 -22 15 -6 15 -7 -1
-19 -15 -11 -16 -16 -6 -28 7 -9 22 -18 32 -21 12 -4 22 -19 26 -36 3 -16 21
-42 39 -59 20 -17 31 -35 28 -44 -3 -7 0 -17 7 -22 7 -4 15 -2 17 4 5 15 22
16 22 1 0 -6 -7 -17 -15 -25 -21 -22 -19 -31 10 -38 14 -4 25 -11 25 -17 0
-14 56 -64 110 -98 44 -28 49 -29 215 -34 152 -4 175 -2 220 15 58 23 86 45
79 62 -3 7 6 21 20 30 25 16 36 56 16 56 -5 0 -10 7 -10 16 0 9 -8 23 -17 30
-17 13 -17 14 5 20 12 3 22 13 22 20 0 15 -10 17 -47 14 -14 -1 -23 4 -23 13
0 8 -7 17 -15 21 -8 3 -15 14 -15 24 0 11 -7 25 -15 32 -8 7 -15 21 -15 31 0
11 -10 24 -22 30 -32 15 -72 79 -59 92 18 18 12 37 -10 37 -12 0 -23 8 -26 20
-3 10 -13 22 -24 25 -10 3 -21 16 -25 28 -4 12 -14 27 -23 34 -14 10 -14 15
-3 34 13 20 12 21 -8 16 -29 -7 -72 29 -51 42 18 11 5 31 -20 31 -10 0 -19 6
-19 13 0 13 -86 139 -114 168 -20 20 -20 39 -1 39 19 0 19 34 0 50 -18 15 -10
30 16 30 18 0 20 4 14 32 -6 24 -3 35 12 47 11 9 37 39 59 66 21 28 52 62 69
76 29 26 29 27 12 47 -17 18 -17 21 -2 36 18 17 45 22 45 7 0 -5 -6 -11 -12
-14 -7 -2 -10 -8 -5 -13 4 -4 17 2 29 14 13 12 17 22 10 22 -7 0 -12 11 -12
25 0 22 3 25 24 19 27 -6 46 13 22 22 -23 9 -20 34 4 34 11 0 20 4 20 9 0 5
10 11 21 14 17 5 20 11 15 31 -5 20 0 30 29 53 21 17 35 37 35 51 0 17 6 22
25 22 22 0 25 3 19 25 -5 20 -1 26 20 35 25 9 36 30 16 30 -5 0 -10 5 -10 10
0 16 14 11 28 -10 9 -15 9 -25 0 -46 -10 -22 -9 -27 5 -35 28 -16 21 -39 -13
-39 -37 0 -39 -13 -5 -28 21 -10 24 -17 19 -37 -3 -14 -2 -31 3 -38 5 -7 6
-178 3 -402 -4 -251 -3 -397 4 -410 5 -11 10 -64 11 -117 2 -61 7 -103 15
-113 10 -12 10 -18 -1 -32 -12 -14 -12 -16 1 -11 12 4 15 -4 17 -39 1 -29 8
-49 18 -57 10 -7 17 -27 18 -50 1 -22 3 -34 5 -27 6 18 42 13 42 -6 0 -9 26
-41 57 -71 50 -47 55 -57 41 -65 -13 -9 7 -23 109 -74 69 -35 135 -63 148 -63
12 0 42 -7 65 -15 24 -8 93 -18 154 -21 101 -6 119 -4 201 20 95 28 235 92
235 107 0 18 22 8 53 -23 65 -65 77 -68 245 -68 143 0 156 2 202 25 28 14 50
29 50 34 0 5 11 22 24 38 13 15 27 46 31 68 10 54 6 146 -7 162 -7 9 -7 13 2
13 9 0 11 14 8 50 -4 43 -3 50 12 50 10 0 20 -7 24 -15 3 -8 10 -15 16 -15 5
0 10 7 10 15 0 8 -7 15 -15 15 -8 0 -17 11 -21 25 -3 13 -12 29 -20 36 -22 18
-16 29 15 29 23 0 31 -6 40 -31 6 -17 24 -46 41 -65 16 -19 30 -46 30 -59 0
-25 31 -65 50 -65 6 0 10 -8 8 -17 -2 -14 3 -17 20 -15 20 3 22 0 16 -25 -7
-25 -6 -27 10 -14 20 17 28 10 32 -26 3 -28 20 -44 39 -37 7 3 15 -5 18 -17 4
-16 11 -20 27 -16 16 4 30 -3 52 -29 17 -19 35 -34 41 -34 5 0 33 -11 61 -24
68 -32 170 -66 199 -66 13 0 28 -5 35 -12 7 -7 34 -11 64 -9 119 6 127 5 147
-13 19 -17 22 -18 45 -2 15 10 46 16 78 16 66 0 187 23 270 51 87 28 178 70
178 80 0 5 6 9 14 9 8 0 22 8 32 18 10 9 21 18 26 18 4 1 13 2 19 3 6 0 9 10
6 21 -3 13 1 24 13 30 24 13 90 103 90 123 0 9 9 21 20 27 12 6 20 21 20 35 0
14 6 26 13 27 6 0 17 2 22 3 6 2 14 3 19 4 5 0 1 10 -9 21 -12 13 -15 27 -11
42 14 43 16 202 5 231 -8 19 -9 35 -2 50 13 30 6 54 -18 60 -16 4 -18 9 -9 32
12 32 7 40 -23 40 -15 0 -21 5 -18 15 15 60 15 61 -14 54 -24 -6 -26 -4 -23
17 2 17 -3 27 -19 34 -13 5 -23 14 -23 20 -1 5 -9 20 -20 33 -14 17 -25 22
-41 17 -23 -8 -23 1 -4 48 4 10 3 17 -4 17 -6 0 -11 -9 -11 -20 0 -24 -13 -25
-45 -4 -30 20 -32 31 -5 39 11 3 20 12 20 20 0 8 -7 11 -20 8 -11 -3 -20 -12
-20 -20 0 -10 -9 -13 -27 -11 -35 4 -37 30 -3 38 17 4 21 8 12 14 -18 11 -15
23 11 31 35 11 81 5 94 -12 14 -18 43 -10 43 11 0 9 11 18 24 22 14 3 27 15
30 29 5 18 12 23 34 22 28 -2 29 1 16 54 -5 22 -2 27 17 32 22 6 22 7 6 25 -9
10 -17 28 -17 39 0 11 -6 26 -14 33 -8 6 -12 18 -9 25 8 22 -66 162 -109 207
-21 22 -38 44 -38 49 0 18 -57 69 -77 69 -11 0 -35 18 -54 40 -27 33 -39 39
-58 35 -20 -5 -23 -3 -18 14 4 16 0 21 -16 21 -11 0 -31 9 -43 21 -12 11 -38
22 -56 24 -19 2 -52 10 -73 19 -51 22 -218 46 -302 45 -38 -1 -108 -8 -158
-15z m293 -105 c97 -10 174 -29 224 -55 14 -8 31 -14 38 -14 7 0 32 -13 57
-30 24 -16 48 -30 53 -30 10 0 150 -134 150 -145 0 -4 14 -24 30 -45 17 -21
30 -42 30 -48 0 -5 13 -36 29 -68 16 -33 32 -78 36 -101 4 -24 11 -45 16 -49
27 -16 -8 -20 -168 -18 -98 2 -183 3 -190 4 -12 0 -53 77 -53 101 0 16 -105
129 -119 129 -5 0 -24 8 -43 17 -18 9 -45 22 -60 30 -41 20 -267 18 -310 -4
-18 -9 -46 -23 -62 -31 -61 -31 -96 -90 -96 -161 0 -47 3 -53 50 -101 28 -27
59 -50 68 -50 9 0 26 -7 36 -15 11 -8 32 -15 46 -15 14 0 35 -7 46 -15 10 -8
35 -15 55 -15 20 0 56 -7 79 -15 23 -8 58 -15 77 -15 19 0 44 -5 55 -11 12 -7
47 -15 77 -20 71 -10 139 -28 173 -45 14 -8 35 -14 46 -14 11 0 25 -7 32 -15
7 -8 19 -15 27 -15 13 0 93 -50 133 -83 28 -22 78 -92 95 -132 10 -22 22 -49
28 -60 6 -11 13 -75 15 -142 4 -102 2 -127 -12 -148 -9 -13 -16 -33 -16 -43 0
-10 -11 -39 -25 -63 -14 -24 -28 -51 -32 -59 -9 -19 -121 -131 -148 -148 -11
-6 -30 -16 -42 -21 -11 -6 -24 -15 -28 -20 -3 -6 -16 -11 -29 -11 -12 0 -27
-5 -33 -11 -17 -17 -121 -40 -223 -50 -52 -5 -103 -11 -113 -13 -24 -6 -256
20 -329 37 -32 7 -63 18 -70 25 -6 6 -22 12 -34 12 -26 0 -85 29 -97 48 -4 6
-16 12 -25 12 -19 0 -182 136 -182 152 0 5 -11 22 -25 36 -26 29 -65 98 -65
118 0 6 -7 17 -15 24 -8 7 -15 26 -15 42 0 16 -6 39 -14 51 -22 34 -29 84 -14
88 7 2 96 3 198 1 l185 -3 18 -30 c9 -17 17 -37 17 -45 0 -39 141 -194 177
-194 8 0 24 -6 36 -14 29 -19 174 -46 245 -46 106 0 223 47 284 114 37 40 38
43 38 117 0 56 -4 80 -15 89 -8 7 -15 18 -15 24 -1 26 -105 85 -188 106 -18 4
-38 12 -45 18 -7 5 -32 12 -57 15 -25 3 -64 10 -87 16 -100 26 -130 33 -173
40 -60 11 -137 31 -180 46 -56 21 -64 24 -80 34 -8 4 -31 16 -50 26 -82 43
-190 149 -190 187 0 8 -7 23 -15 34 -8 10 -15 33 -15 49 0 17 -5 48 -11 70
-13 47 3 193 27 237 8 14 14 31 14 38 0 7 14 29 30 50 17 21 30 42 30 46 0 15
105 102 140 117 8 4 22 11 30 16 19 11 74 35 120 51 39 14 198 36 273 39 27 0
92 -4 145 -10z m-4298 -18 c85 0 163 -2 173 -6 10 -4 23 -17 28 -29 12 -27 28
-52 62 -97 15 -20 27 -40 27 -44 0 -4 14 -24 30 -45 17 -21 30 -43 30 -48 0
-6 6 -15 13 -19 14 -9 32 -37 47 -70 5 -13 14 -23 20 -23 5 0 10 -5 10 -10 0
-10 37 -68 51 -80 3 -3 9 -12 13 -20 10 -22 29 -52 52 -85 12 -17 25 -40 28
-52 4 -13 12 -23 18 -23 12 0 47 41 48 57 0 6 6 18 13 25 16 19 35 48 47 76 5
12 14 22 20 22 5 0 10 7 10 15 0 9 6 18 14 21 8 3 17 13 20 22 7 21 22 45 59
93 15 20 27 41 27 47 0 5 7 12 15 16 8 3 15 10 15 17 0 6 14 28 30 49 17 21
30 41 30 45 0 4 14 24 30 45 17 21 30 42 30 46 1 5 9 19 20 32 18 21 25 22
217 26 109 2 209 5 223 7 39 6 38 -30 -2 -74 -18 -20 -68 -85 -111 -144 -42
-59 -104 -145 -137 -191 -33 -45 -60 -87 -60 -92 0 -6 -4 -10 -9 -10 -5 0 -20
-17 -32 -37 -13 -21 -42 -64 -66 -95 -24 -31 -43 -61 -43 -67 0 -6 -3 -11 -7
-11 -5 0 -19 -17 -33 -38 -13 -20 -44 -63 -67 -94 -24 -31 -43 -65 -43 -75 0
-10 14 -31 30 -47 17 -16 30 -33 30 -38 0 -5 34 -54 75 -108 41 -54 75 -102
75 -105 0 -4 20 -33 45 -65 25 -32 45 -63 45 -70 0 -6 7 -13 15 -16 8 -4 15
-13 15 -20 0 -8 7 -17 15 -20 8 -4 15 -11 15 -16 0 -6 14 -27 30 -48 17 -21
30 -41 30 -44 0 -8 148 -207 189 -256 17 -19 31 -46 31 -59 0 -20 -3 -22 -22
-15 -13 4 -114 10 -224 11 -185 4 -203 5 -219 23 -20 22 -38 51 -54 88 -6 12
-15 22 -21 22 -5 0 -10 5 -10 11 0 6 -13 28 -30 49 -16 21 -30 43 -30 49 0 6
-5 11 -10 11 -6 0 -13 8 -17 18 -3 9 -19 33 -35 53 -15 20 -28 40 -28 44 0 4
-13 24 -30 45 -16 21 -30 41 -30 45 0 4 -13 24 -28 44 -16 20 -32 43 -35 51
-19 43 -57 95 -69 98 -9 2 -22 -14 -34 -39 -10 -23 -31 -59 -46 -80 -16 -22
-28 -42 -28 -45 0 -3 -13 -23 -30 -44 -16 -21 -30 -41 -30 -45 0 -4 -13 -24
-30 -45 -16 -21 -30 -41 -30 -45 0 -4 -13 -24 -30 -45 -16 -21 -30 -41 -30
-45 0 -4 -13 -24 -30 -45 -16 -21 -30 -40 -30 -43 0 -3 -18 -32 -41 -66 l-41
-61 -181 0 c-100 -1 -202 -5 -227 -10 -25 -4 -46 -7 -48 -5 -6 6 20 49 67 110
45 58 115 158 136 193 6 9 16 21 23 25 6 4 12 13 12 18 0 6 20 37 45 69 25 32
45 62 45 65 0 4 14 24 30 45 17 21 30 41 30 45 0 3 20 33 45 65 25 32 45 63
45 69 0 6 5 11 10 11 6 0 13 8 17 18 3 9 19 33 35 53 15 20 28 42 28 48 0 6 5
11 10 11 6 0 15 11 20 25 5 14 14 25 20 25 5 0 12 11 16 24 4 19 -5 38 -45 89
-28 36 -51 70 -51 76 0 6 -7 14 -15 17 -8 4 -15 11 -15 16 0 5 -19 35 -42 66
-24 32 -47 65 -53 74 -12 19 -92 136 -132 193 -15 22 -31 42 -35 43 -5 2 -8
10 -8 18 0 8 -5 14 -10 14 -6 0 -14 8 -17 18 -4 9 -26 43 -50 74 -24 31 -43
60 -43 65 0 5 -13 23 -30 41 -16 18 -30 37 -30 42 0 5 -9 14 -20 20 -11 6 -20
17 -20 24 0 8 -8 17 -17 21 -17 6 -17 7 -1 19 13 10 32 11 70 4 29 -4 123 -8
208 -7z m2031 -6 c0 -5 0 -271 -1 -590 -1 -494 1 -587 15 -630 8 -27 15 -64
15 -81 0 -16 7 -39 15 -50 8 -10 15 -26 15 -34 2 -37 107 -121 171 -135 89
-20 250 -5 316 29 46 24 135 127 154 178 9 24 24 66 34 93 17 46 19 95 22 634
2 322 5 587 7 589 6 5 376 6 382 0 2 -3 5 -414 5 -914 l0 -909 -195 -2 c-107
-2 -197 1 -200 5 -3 5 -1 37 5 73 5 35 12 88 16 117 9 79 -12 70 -97 -42 -23
-31 -47 -56 -52 -56 -5 0 -22 -11 -36 -25 -32 -29 -99 -65 -123 -65 -9 0 -22
-6 -28 -14 -9 -11 -117 -28 -186 -28 -69 -1 -204 17 -222 28 -12 8 -31 14 -42
14 -11 0 -22 4 -26 9 -3 5 -19 12 -35 16 -16 4 -44 19 -62 33 -47 39 -138 132
-138 142 0 5 -13 29 -30 53 -16 25 -30 52 -30 61 0 8 -6 30 -14 48 -8 18 -22
89 -30 158 -13 102 -16 232 -16 711 0 322 2 588 4 590 10 9 386 4 387 -6z
m2235 -403 c58 -12 132 -50 145 -73 5 -10 16 -19 25 -19 8 0 19 -10 24 -22 20
-45 52 -93 76 -115 13 -12 24 -27 24 -33 0 -16 -28 -12 -48 8 -15 15 -41 20
-131 25 -134 8 -191 22 -191 49 0 10 -7 18 -15 18 -8 0 -15 -9 -15 -20 0 -27
-26 -25 -45 4 -9 13 -27 27 -41 30 -14 4 -29 18 -34 31 -6 15 -17 25 -30 25
-29 0 -25 22 13 57 49 47 134 60 243 35z m364 -297 c0 -13 -4 -14 -20 -5 -11
6 -20 13 -20 15 0 3 9 5 20 5 11 0 20 -7 20 -15z m-770 -350 c0 -8 -9 -15 -20
-15 -20 0 -26 11 -13 23 12 13 33 7 33 -8z m-522 -243 c3 -9 -2 -13 -14 -10
-9 1 -19 9 -22 16 -3 9 2 13 14 10 9 -1 19 -9 22 -16z m-923 -142 c-3 -5 -12
-10 -20 -10 -8 0 -17 5 -20 10 -4 6 5 10 20 10 15 0 24 -4 20 -10z m-785 -100
c0 -21 -15 -27 -25 -10 -7 12 2 30 16 30 5 0 9 -9 9 -20z"/>
<path d="M11034 2977 c-9 -24 6 -44 18 -22 7 11 6 21 -1 28 -7 7 -12 6 -17 -6z"/>
<path d="M11358 3508 c9 -9 15 -9 24 0 9 9 7 12 -12 12 -19 0 -21 -3 -12 -12z"/>
<path d="M6235 3491 c-6 -11 9 -23 19 -14 9 9 7 23 -3 23 -6 0 -12 -4 -16 -9z"/>
<path d="M10070 3425 c0 -9 5 -15 11 -13 6 2 11 8 11 13 0 5 -5 11 -11 13 -6
2 -11 -4 -11 -13z"/>
<path d="M11656 3132 c-3 -6 -1 -14 5 -17 15 -10 25 3 12 16 -7 7 -13 7 -17 1z"/>
<path d="M13950 2885 c0 -8 5 -15 10 -15 6 0 10 7 10 15 0 8 -4 15 -10 15 -5
0 -10 -7 -10 -15z"/>
<path d="M2905 2831 c-7 -12 12 -24 25 -16 11 7 4 25 -10 25 -5 0 -11 -4 -15
-9z"/>
<path d="M3206 2323 c-12 -12 -6 -33 9 -33 8 0 15 6 15 14 0 17 -14 28 -24 19z"/>
<path d="M10720 2160 c19 -13 30 -13 30 0 0 6 -10 10 -22 10 -19 0 -20 -2 -8
-10z"/>
<path d="M8002 2101 c2 -7 7 -12 11 -12 12 1 9 15 -3 20 -7 2 -11 -2 -8 -8z"/>
<path d="M9890 1950 c0 -5 6 -10 14 -10 8 0 18 5 21 10 3 6 -3 10 -14 10 -12
0 -21 -4 -21 -10z"/>
</g>
</svg>
